<svg xmlns="http://www.w3.org/2000/svg" version="1.1" xmlns:xlink="http://www.w3.org/1999/xlink" xmlns:svgjs="http://svgjs.dev/svgjs" width="67.52" height="70"><svg id="SvgjsSvg1003" data-name="Layer 1" xmlns="http://www.w3.org/2000/svg" viewBox="0 0 67.52 70">
  <defs>
    <style>
      .cls-1 {
        fill: #4d6bff;
      }
    </style>
  </defs>
  <path class="cls-1" d="M60.25,59.77c-4.25.26-7.91-2.97-8.18-7.22-.11-1.68.34-3.25,1.17-4.58l-15.63-11.36,5.92,18.22c.47-.12.96-.21,1.47-.23,4.25-.26,7.91,2.97,8.18,7.22.26,4.25-2.97,7.91-7.22,8.18-4.25.26-7.91-2.97-8.18-7.22-.21-3.37,1.78-6.36,4.73-7.59l-5.96-18.35-5.96,18.35c2.62,1.09,4.54,3.6,4.73,6.63.26,4.25-2.97,7.91-7.22,8.18-4.25.26-7.91-2.97-8.18-7.22-.26-4.25,2.97-7.91,7.22-8.18.84-.05,1.65.04,2.42.23l5.98-18.42-15.75,11.42c.69,1.07,1.14,2.33,1.23,3.71.26,4.25-2.97,7.91-7.22,8.18-4.25.26-7.91-2.97-8.18-7.22-.26-4.25,2.97-7.91,7.22-8.18,2.49-.16,4.77.9,6.29,2.64l15.66-11.35H15.4c-.24,3.81-3.29,6.95-7.21,7.19C3.94,43.06.28,39.83.02,35.58c-.26-4.25,2.97-7.91,7.22-8.18,4.22-.26,7.84,2.92,8.17,7.12h19.38l-15.54-11.3c-1.31,1.52-3.2,2.54-5.37,2.68-4.25.26-7.91-2.97-8.18-7.22s2.97-7.91,7.22-8.18c4.25-.26,7.91,2.97,8.18,7.22.11,1.7-.35,3.29-1.2,4.62l15.69,11.4-5.98-18.42c-.44.11-.89.19-1.35.21-4.23.26-7.87-2.97-8.14-7.22-.26-4.25,2.95-7.91,7.19-8.18,4.23-.26,7.87,2.97,8.14,7.22.21,3.4-1.82,6.43-4.81,7.63l5.95,18.3,6-18.45c-2.64-1.09-4.57-3.6-4.76-6.64C37.56,3.94,40.79.28,45.04.02c4.25-.26,7.91,2.97,8.18,7.22.26,4.25-2.97,7.91-7.22,8.18-.82.05-1.62-.03-2.38-.22l-5.97,18.37,15.55-11.28c-.65-1.06-1.06-2.28-1.15-3.6-.26-4.25,2.97-7.91,7.22-8.18,4.25-.26,7.91,2.97,8.18,7.22.26,4.25-2.97,7.91-7.22,8.18-2.54.16-4.86-.94-6.38-2.75l-16.43,11.92,16.51,12c1.31-1.54,3.22-2.58,5.4-2.72,4.25-.26,7.91,2.97,8.18,7.22.26,4.25-2.97,7.91-7.22,8.18l-.03.03Z"></path>
</svg><style>@media (prefers-color-scheme: light) { :root { filter: none; } }
@media (prefers-color-scheme: dark) { :root { filter: none; } }
</style></svg>